<!-- md.trk -->
<svg version="1.1" baseProfile="full"
     width="9300" height="4800"
     xmlns="http://www.w3.org/2000/svg">
  <rect width="100%" height="100%" fill="beige"/>

<path d="M480 4320 L4560 4320 L4560 3120 L3720 3120 L2040 3840 L990 3840 L990 3390 L2040 3390 L3580 2610 L2040 1710 L990 1710 L990 1250 L2040 1250 L4230 2400 L5020 2400 L5150 2390 L5260 2340 L5360 2260 L5440 2160 L5490 2050 L5500 1920 L5490 1800 L5440 1680 L5360 1590 L5260 1510 L5150 1460 L5020 1440 L4270 1440 L4270 960 L5020 960 L6690 1790 L6970 2310 L6970 2670 L6610 3240 L5650 3240 L5650 2880 L5400 2880 L5400 4320 L8700 4320 L8850 4300 L9000 4250 L9120 4150 L9210 4020 L9270 3880 L9300 3720 L9270 3570 L9210 3420 L9120 3300 L9000 3210 L8850 3150 L8700 3120 L8130 3120 L8130 480 L480 480 L480 2160 L1110 2160 L1110 2760 L480 2760 L480 4320" stroke="black" stroke-width="20" fill="none" />
  <text x="7700" y="450" font-family="Verdana" font-size="120">67'x36'</text>
  <text x="3800" y="300" font-family="Verdana" font-size="250">MD &amp; WV Railway</text>
  <text x="6700" y="1100" font-family="Verdana" font-size="150">Cumberland</text>
  <text x="7400" y="2700" font-family="Verdana" font-size="150">Yard</text>
  <text x="4300" y="1800" font-family="Verdana" font-size="150">Helmstetters</text>
  <text x="4500" y="2000" font-family="Verdana" font-size="150">Curve</text>
  <text x="5600" y="3700" font-family="Verdana" font-size="150">Engine</text>
  <text x="5500" y="3900" font-family="Verdana" font-size="150">Terminal</text>
  <text x="1300" y="750" font-family="Verdana" font-size="150">Hyndman</text>
  <text x="1400" y="1850" font-family="Verdana" font-size="150">Keystone Viaduct</text>
  <text x="2600" y="2600" font-family="Verdana" font-size="150">Myersdale</text>
  <text x="900" y="2950" font-family="Verdana" font-size="150">Salisbury Viaduct</text>
  <text x="3000" y="3600" font-family="Verdana" font-size="150">Connelsville</text>
# lbl: A, xPos 810.00, yPos 316.00, dir 90.00
  <text x="8100" y="1640" font-family="Verdana" font-size="150">A</text>

# str: xPos    810, yPos 316, dir 90, len 64.00
  <line   x1="8100" y1="1640" x2="8100" y2="1000" style="stroke:blue;stroke-width:20" />

# curve: rad 0.0, dAng 90.0, color blue
#   col blue
 <!-- arc (762, 380) a0 0, a1 90, rad 48.00 -->
 <path d="M8100 1000 L8098 958 L8092 916 L8083 875 L8071 835 L8055 797 L8035 760 L8013 724 L7987 691 L7959 660 L7928 632 L7895 606 L7860 584 L7822 564 L7784 548 L7744 536 L7703 527 L7661 521 L7620 520 L7620 520 " stroke="blue" stroke-width="20" fill="none" />"

# str: xPos    762, yPos 428, dir 180, len 661.00
  <line   x1="7620" y1="520" x2="1010" y2="519" style="stroke:blue;stroke-width:20" />

# curve: rad 0.0, dAng 90.0, color blue
#   col blue
 <!-- arc (101, 380) a0 90, a1 180, rad 48.00 -->
 <path d="M1010 519 L968 521 L926 527 L885 536 L845 548 L807 564 L770 584 L734 606 L701 632 L670 660 L642 691 L616 724 L594 759 L574 797 L558 835 L546 875 L537 916 L531 958 L530 999 L530 999 " stroke="blue" stroke-width="20" fill="none" />"
# lbl: Sandpatch, xPos  53.00, yPos 380.00, dir 270.00
  <text x="530" y="999" font-family="Verdana" font-size="150">Sandpatch</text>

# str: xPos     53, yPos 380, dir 270, len 40.00
  <line   x1="530" y1="999" x2="529" y2="1399" style="stroke:blue;stroke-width:20" />

# curve: rad 0.0, dAng 90.0, color blue
#   col blue
 <!-- arc (113, 340) a0 180, a1 270, rad 60.00 -->
 <path d="M530 1399 L532 1452 L539 1504 L550 1555 L566 1605 L586 1653 L610 1699 L638 1744 L670 1785 L705 1824 L744 1859 L785 1891 L829 1919 L876 1943 L924 1963 L974 1979 L1025 1990 L1077 1997 L1129 1999 L1129 1999 " stroke="blue" stroke-width="20" fill="none" />"

# str: xPos    112, yPos 280, dir 0, len 100.00
  <line   x1="1129" y1="1999" x2="2130" y2="1999" style="stroke:blue;stroke-width:20" />

# curve: rad 0.0, dAng -185.0, color blue
#   col blue
 <!-- arc (213, 224) a0 90, a1 -95, rad 56.00 -->
 <path d="M2081 3117 L2130 3119 L2178 3117 L2227 3111 L2274 3100 L2321 3086 L2366 3067 L2410 3044 L2451 3018 L2489 2988 L2525 2955 L2558 2919 L2588 2881 L2614 2839 L2637 2796 L2656 2751 L2670 2704 L2681 2657 L2687 2608 L2690 2559 L2687 2511 L2681 2462 L2670 2415 L2656 2368 L2637 2323 L2614 2279 L2588 2238 L2558 2200 L2525 2164 L2489 2131 L2451 2101 L2410 2075 L2366 2052 L2321 2033 L2274 2019 L2227 2008 L2178 2002 L2130 1999 L2130 1999 " stroke="blue" stroke-width="20" fill="none" />"

# str: xPos    208, yPos 168, dir -185, len 100.00
  <line   x1="2081" y1="3117" x2="1084" y2="3030" style="stroke:blue;stroke-width:20" />

# curve: rad 0.0, dAng 95.0, color blue
#   col blue
 <!-- arc (104, 129) a0 -275, a1 -180, rad 48.00 -->
 <path d="M1084 3030 L1043 3028 L1001 3030 L959 3036 L918 3045 L878 3057 L840 3073 L803 3093 L767 3115 L734 3141 L703 3169 L675 3200 L649 3233 L627 3268 L608 3306 L592 3344 L579 3384 L570 3425 L564 3467 L563 3508 L563 3508 " stroke="blue" stroke-width="20" fill="none" />"

# str: xPos     56, yPos 129, dir -90, len 30.00
  <line   x1="563" y1="3508" x2="563" y2="3808" style="stroke:blue;stroke-width:20" />
# lbl: Garret, xPos  56.32, yPos 99.11, dir -90.00
  <text x="563" y="3808" font-family="Verdana" font-size="150">Garret</text>

# curve: rad 0.0, dAng 90.0, color green
#   col green
 <!-- arc (104, 99) a0 -180, a1 -90, rad 48.00 -->
 <path d="M563 3808 L564 3850 L570 3892 L579 3933 L592 3973 L608 4011 L627 4048 L649 4084 L675 4117 L703 4148 L734 4176 L767 4202 L803 4224 L840 4243 L878 4259 L918 4272 L959 4281 L1001 4287 L1043 4288 L1043 4288 " stroke="green" stroke-width="20" fill="none" />"

# str: xPos    104, yPos 51, dir 0, len 296.00
  <line   x1="1043" y1="4288" x2="4003" y2="4288" style="stroke:green;stroke-width:20" />

# curve: rad 0.0, dAng 205.0, color green
#   col green
 <!-- arc (400, 105) a0 -90, a1 115, rad 54.00 -->
 <path d="M4003 4288 L4050 4286 L4096 4280 L4142 4270 L4187 4256 L4231 4238 L4273 4216 L4312 4191 L4350 4162 L4385 4130 L4416 4095 L4445 4058 L4470 4018 L4492 3977 L4510 3933 L4524 3888 L4534 3842 L4541 3795 L4543 3748 L4541 3701 L4534 3655 L4524 3609 L4510 3564 L4492 3520 L4470 3478 L4445 3439 L4416 3401 L4385 3367 L4350 3335 L4312 3306 L4273 3281 L4231 3259 L4187 3241 L4142 3227 L4096 3217 L4050 3210 L4003 3208 L3956 3210 L3909 3217 L3863 3227 L3818 3241 L3774 3259 L3774 3259 " stroke="green" stroke-width="20" fill="none" />"

# str: xPos    377, yPos 154, dir 205, len 220.00
  <line   x1="3774" y1="3259" x2="1781" y2="4189" style="stroke:green;stroke-width:20" />

# curve: rad 0.0, dAng -25.0, color green
#   col green
 <!-- arc (152, 115) a0 295, a1 270, rad 60.00 -->
 <path d="M1527 4245 L1579 4243 L1631 4236 L1682 4225 L1732 4209 L1781 4189 L1781 4189 " stroke="green" stroke-width="20" fill="none" />"

# str: xPos    152, yPos 55, dir 180, len 46.00
  <line   x1="1527" y1="4245" x2="1067" y2="4245" style="stroke:green;stroke-width:20" />

# curve: rad 0.0, dAng -90.0, color green
#   col green
 <!-- arc (106, 101) a0 270, a1 180, rad 46.00 -->
 <path d="M607 3785 L609 3825 L614 3865 L623 3904 L635 3942 L650 3979 L669 4015 L690 4049 L715 4081 L742 4110 L771 4137 L803 4162 L837 4183 L873 4202 L910 4217 L948 4229 L987 4238 L1027 4243 L1067 4245 L1067 4245 " stroke="green" stroke-width="20" fill="none" />"

# str: xPos     60, yPos 101, dir 90, len 26.00
  <line   x1="607" y1="3785" x2="607" y2="3525" style="stroke:blue;stroke-width:20" />

# curve: rad 0.0, dAng -95.0, color blue
#   col blue
 <!-- arc (106, 127) a0 180, a1 85, rad 46.00 -->
 <path d="M1107 3067 L1067 3065 L1027 3067 L987 3072 L948 3081 L910 3093 L873 3108 L837 3127 L803 3148 L771 3173 L742 3200 L715 3229 L690 3261 L669 3295 L650 3331 L635 3368 L623 3406 L614 3445 L609 3485 L607 3525 L607 3525 " stroke="blue" stroke-width="20" fill="none" />"

# str: xPos    110, yPos 173, dir -5, len 100.00
  <line   x1="1107" y1="3067" x2="2103" y2="3154" style="stroke:blue;stroke-width:20" />

# curve: rad 0.0, dAng 185.0, color blue
#   col blue
 <!-- arc (215, 224) a0 -95, a1 90, rad 60.00 -->
 <path d="M2103 3154 L2156 3156 L2208 3154 L2260 3147 L2311 3136 L2361 3120 L2409 3100 L2456 3076 L2500 3048 L2541 3016 L2580 2980 L2615 2942 L2647 2900 L2675 2856 L2699 2810 L2719 2761 L2735 2711 L2746 2660 L2753 2608 L2756 2556 L2753 2504 L2746 2452 L2735 2401 L2719 2351 L2699 2303 L2675 2256 L2647 2212 L2615 2170 L2580 2132 L2541 2097 L2500 2065 L2456 2037 L2409 2012 L2361 1992 L2311 1977 L2260 1965 L2208 1958 L2156 1956 L2156 1956 " stroke="blue" stroke-width="20" fill="none" />"

# str: xPos    215, yPos 284, dir 180, len 102.00
  <line   x1="2156" y1="1956" x2="1136" y2="1956" style="stroke:blue;stroke-width:20" />

# curve: rad 0.0, dAng -90.0, color blue
#   col blue
 <!-- arc (113, 340) a0 270, a1 180, rad 56.00 -->
 <path d="M576 1396 L578 1445 L584 1493 L595 1541 L609 1588 L628 1633 L651 1676 L677 1717 L707 1756 L740 1792 L776 1825 L814 1855 L856 1881 L899 1904 L944 1922 L991 1937 L1038 1948 L1087 1954 L1136 1956 L1136 1956 " stroke="blue" stroke-width="20" fill="none" />"

# str: xPos     57, yPos 340, dir 90, len 40.00
  <line   x1="576" y1="1396" x2="576" y2="996" style="stroke:blue;stroke-width:20" />

# curve: rad 0.0, dAng -90.0, color blue
#   col blue
 <!-- arc (101, 380) a0 180, a1 90, rad 44.00 -->
 <path d="M1016 556 L977 558 L939 563 L902 571 L865 583 L830 597 L796 615 L763 636 L733 659 L704 685 L679 713 L655 744 L635 776 L617 810 L602 846 L591 882 L582 920 L577 958 L576 996 L576 996 " stroke="blue" stroke-width="20" fill="none" />"

# str: xPos    101, yPos 424, dir 0, len 660.00
  <line   x1="1016" y1="556" x2="7616" y2="556" style="stroke:blue;stroke-width:20" />

# curve: rad 0.0, dAng -90.0, color blue
#   col blue
 <!-- arc (761, 380) a0 90, a1 0, rad 44.00 -->
 <path d="M8056 996 L8054 958 L8049 920 L8041 882 L8029 846 L8014 810 L7997 776 L7976 744 L7953 713 L7927 685 L7898 659 L7868 636 L7836 615 L7802 597 L7766 583 L7729 571 L7692 563 L7654 558 L7616 556 L7616 556 " stroke="blue" stroke-width="20" fill="none" />"

# str: xPos    805, yPos 380, dir -90, len 120.00
  <line   x1="8056" y1="996" x2="8056" y2="2196" style="stroke:blue;stroke-width:20" />
# lbl: C, xPos 805.61, yPos 260.34, dir -90.00
  <text x="8056" y="2196" font-family="Verdana" font-size="150">C</text>

# curve: rad 0.0, dAng -20.0, color blue
#   col blue
 <!-- arc (745, 260) a0 0, a1 -20, rad 60.00 -->
 <path d="M8019 2401 L8035 2351 L8046 2300 L8053 2248 L8056 2196 L8056 2196 " stroke="blue" stroke-width="20" fill="none" />"

# str: xPos    801, yPos 239, dir -110, len 76.00
  <line   x1="8019" y1="2401" x2="7759" y2="3116" style="stroke:blue;stroke-width:20" />

# curve: rad 0.0, dAng 110.0, color blue
#   col blue
 <!-- arc (851, 141) a0 -200, a1 -90, rad 80.00 -->
 <path d="M7759 3116 L7738 3182 L7723 3250 L7714 3319 L7711 3389 L7714 3459 L7723 3528 L7738 3596 L7759 3663 L7786 3727 L7818 3789 L7856 3848 L7898 3903 L7946 3955 L7997 4002 L8052 4044 L8111 4082 L8173 4114 L8238 4141 L8304 4162 L8372 4177 L8441 4186 L8511 4189 L8511 4189 " stroke="blue" stroke-width="20" fill="none" />"

# str: xPos    851, yPos 61, dir 0, len 20.00
  <line   x1="8511" y1="4189" x2="8711" y2="4189" style="stroke:blue;stroke-width:20" />

# curve: rad 0.0, dAng 180.0, color blue
#   col blue
 <!-- arc (871, 105) a0 -90, a1 90, rad 44.00 -->
 <path d="M8711 4189 L8750 4187 L8788 4182 L8825 4174 L8862 4163 L8897 4148 L8931 4130 L8964 4110 L8994 4086 L9022 4060 L9048 4032 L9072 4002 L9092 3969 L9110 3935 L9125 3900 L9136 3863 L9145 3826 L9150 3787 L9151 3749 L9150 3711 L9145 3673 L9136 3635 L9125 3599 L9110 3563 L9092 3529 L9072 3497 L9048 3466 L9022 3438 L8994 3412 L8964 3389 L8931 3368 L8897 3350 L8862 3336 L8825 3324 L8788 3316 L8750 3311 L8711 3309 L8711 3309 " stroke="blue" stroke-width="20" fill="none" />"
# lbl: D, xPos 871.17, yPos 149.04, dir 180.00
  <text x="8711" y="3309" font-family="Verdana" font-size="150">D</text>

# str: xPos    871, yPos 149, dir 180, len 40.00
  <line   x1="8711" y1="3309" x2="8311" y2="3309" style="stroke:blue;stroke-width:20" />

# str: xPos    831, yPos 149, dir 180, len 240.00
  <line   x1="8311" y1="3309" x2="5911" y2="3309" style="stroke:green;stroke-width:20" />

# curve: rad 0.0, dAng 204.0, color green
#   col green
 <!-- arc (591, 101) a0 90, a1 294, rad 48.00 -->
 <path d="M5911 3309 L5869 3311 L5828 3316 L5787 3325 L5747 3338 L5708 3354 L5671 3373 L5636 3396 L5603 3421 L5572 3450 L5544 3481 L5518 3514 L5496 3549 L5476 3586 L5460 3625 L5448 3665 L5439 3706 L5433 3747 L5431 3789 L5433 3831 L5439 3872 L5448 3913 L5460 3953 L5476 3992 L5496 4029 L5518 4064 L5544 4098 L5572 4129 L5603 4157 L5636 4182 L5671 4205 L5708 4224 L5747 4240 L5787 4253 L5828 4262 L5869 4267 L5911 4269 L5953 4267 L5995 4262 L6035 4253 L6075 4240 L6106 4228 " stroke="green" stroke-width="20" fill="none" />"

# str: xPos    610, yPos 57, dir 24, len 204.00
  <line   x1="6106" y1="4228" x2="7970" y2="3398" style="stroke:green;stroke-width:20" />

# curve: rad 0.0, dAng -24.0, color green
#   col green
 <!-- arc (816, 96) a0 114, a1 90, rad 48.00 -->
 <path d="M8165 3356 L8123 3358 L8082 3364 L8041 3373 L8001 3385 L7970 3398 " stroke="green" stroke-width="20" fill="none" />"

# str: xPos    816, yPos 144, dir 0, len 54.00
  <line   x1="8165" y1="3356" x2="8705" y2="3356" style="stroke:blue;stroke-width:20" />

# curve: rad 0.0, dAng -180.0, color blue
#   col blue
 <!-- arc (870, 104) a0 90, a1 -90, rad 40.00 -->
 <path d="M8705 4156 L8740 4155 L8775 4150 L8809 4143 L8842 4132 L8874 4119 L8905 4103 L8935 4084 L8962 4063 L8988 4039 L9012 4014 L9033 3986 L9052 3956 L9068 3925 L9081 3893 L9092 3860 L9099 3826 L9104 3791 L9105 3756 L9104 3722 L9099 3687 L9092 3653 L9081 3620 L9068 3587 L9052 3556 L9033 3527 L9012 3499 L8988 3474 L8962 3450 L8935 3429 L8905 3410 L8874 3394 L8842 3381 L8809 3370 L8775 3362 L8740 3358 L8705 3356 L8705 3356 " stroke="blue" stroke-width="20" fill="none" />"
# lbl: E, xPos 870.58, yPos 64.31, dir -180.00
  <text x="8705" y="4156" font-family="Verdana" font-size="150">E</text>

# str: xPos    870, yPos 64, dir -180, len 18.00
  <line   x1="8705" y1="4156" x2="8525" y2="4156" style="stroke:blue;stroke-width:20" />

# curve: rad 0.0, dAng -110.0, color blue
#   col blue
 <!-- arc (852, 140) a0 -90, a1 -200, rad 76.00 -->
 <path d="M7811 3136 L7791 3200 L7777 3264 L7768 3330 L7765 3396 L7768 3463 L7777 3528 L7791 3593 L7811 3656 L7837 3718 L7867 3776 L7903 3832 L7943 3885 L7988 3934 L8037 3979 L8089 4019 L8145 4055 L8204 4085 L8265 4111 L8329 4131 L8393 4145 L8459 4154 L8525 4156 L8525 4156 " stroke="blue" stroke-width="20" fill="none" />"

# str: xPos    781, yPos 166, dir -290, len 76.00
  <line   x1="7811" y1="3136" x2="8071" y2="2422" style="stroke:blue;stroke-width:20" />

# curve: rad 0.0, dAng 20.0, color blue
#   col blue
 <!-- arc (750, 258) a0 -380, a1 -360, rad 60.00 -->
 <path d="M8071 2422 L8087 2372 L8098 2321 L8105 2269 L8107 2217 L8107 2217 " stroke="blue" stroke-width="20" fill="none" />"

# str: xPos    810, yPos 258, dir -270, len 60.00
  <line   x1="8107" y1="2217" x2="8107" y2="1617" style="stroke:blue;stroke-width:20" />
# lbl: P, xPos 810.00, yPos 52.00, dir 0.00
  <text x="8100" y="4280" font-family="Verdana" font-size="150">P</text>

# str: xPos    810, yPos 52, dir 0, len 60.00
  <line   x1="8100" y1="4280" x2="8700" y2="4280" style="stroke:red;stroke-width:20" />

# curve: rad 0.0, dAng 180.0, color red
#   col red
 <!-- arc (870, 106) a0 -90, a1 90, rad 54.00 -->
 <path d="M8700 4280 L8747 4277 L8793 4271 L8839 4261 L8884 4247 L8928 4229 L8970 4207 L9009 4182 L9047 4153 L9081 4121 L9113 4087 L9142 4049 L9167 4010 L9189 3968 L9207 3924 L9221 3879 L9231 3833 L9237 3787 L9240 3740 L9237 3692 L9231 3646 L9221 3600 L9207 3555 L9189 3511 L9167 3470 L9142 3430 L9113 3392 L9081 3358 L9047 3326 L9009 3297 L8970 3272 L8928 3250 L8884 3232 L8839 3218 L8793 3208 L8747 3202 L8700 3200 L8700 3200 " stroke="red" stroke-width="20" fill="none" />"

# str: xPos    870, yPos 160, dir 180, len 50.00
  <line   x1="8700" y1="3200" x2="8200" y2="3200" style="stroke:red;stroke-width:20" />

# curve: rad 0.0, dAng -100.0, color orange
#   col orange
 <!-- arc (820, 208) a0 270, a1 170, rad 48.00 -->
 <path d="M7727 2636 L7721 2678 L7720 2720 L7721 2761 L7727 2803 L7736 2844 L7748 2884 L7764 2922 L7784 2960 L7806 2995 L7832 3028 L7860 3059 L7891 3087 L7924 3113 L7960 3135 L7997 3155 L8035 3171 L8075 3183 L8116 3192 L8158 3198 L8200 3200 L8200 3200 " stroke="orange" stroke-width="20" fill="none" />"

# str: xPos    772, yPos 216, dir 80, len 130.00
  <line   x1="7727" y1="2636" x2="7953" y2="1356" style="stroke:orange;stroke-width:20" />

# curve: rad 0.0, dAng 100.0, color orange
#   col orange
 <!-- arc (736, 354) a0 -10, a1 90, rad 60.00 -->
 <path d="M7953 1356 L7959 1304 L7962 1252 L7959 1199 L7953 1148 L7941 1096 L7925 1046 L7905 998 L7881 952 L7853 908 L7821 866 L7786 827 L7747 792 L7706 760 L7662 732 L7615 708 L7567 688 L7517 672 L7466 661 L7414 654 L7362 652 L7362 652 " stroke="orange" stroke-width="20" fill="none" />"
# lbl: Q, xPos 736.22, yPos 414.78, dir 180.00
  <text x="7362" y="652" font-family="Verdana" font-size="150">Q</text>

# curve: rad 0.0, dAng 120.0, color orange
#   col orange
 <!-- arc (736, 354) a0 90, a1 210, rad 60.00 -->
 <path d="M7362 652 L7309 654 L7257 661 L7206 672 L7156 688 L7108 708 L7062 732 L7018 760 L6976 792 L6937 827 L6902 866 L6870 908 L6842 952 L6818 998 L6798 1046 L6782 1096 L6771 1148 L6764 1199 L6762 1252 L6764 1304 L6771 1356 L6782 1407 L6798 1457 L6818 1505 L6842 1552 L6842 1552 " stroke="orange" stroke-width="20" fill="none" />"

# str: xPos    684, yPos 324, dir 300, len 106.00
  <line   x1="6842" y1="1552" x2="7372" y2="2470" style="stroke:orange;stroke-width:20" />

# str: xPos    737, yPos 232, dir 300, len 61.00
  <line   x1="7372" y1="2470" x2="7677" y2="2998" style="stroke:orange;stroke-width:20" />

# curve: rad 0.0, dAng 60.0, color orange
#   col orange
 <!-- arc (811, 205) a0 210, a1 270, rad 50.00 -->
 <path d="M7677 2998 L7700 3035 L7727 3069 L7756 3102 L7789 3131 L7823 3158 L7860 3181 L7899 3201 L7939 3218 L7981 3231 L8023 3240 L8066 3246 L8110 3248 L8110 3248 " stroke="orange" stroke-width="20" fill="none" />"

# str: xPos    811, yPos 155, dir 0, len 10.00
  <line   x1="8110" y1="3248" x2="8210" y2="3248" style="stroke:orange;stroke-width:20" />

# str: xPos    821, yPos 155, dir 0, len 50.00
  <line   x1="8210" y1="3248" x2="8710" y2="3248" style="stroke:red;stroke-width:20" />

# curve: rad 0.0, dAng -180.0, color red
#   col red
 <!-- arc (871, 107) a0 90, a1 -90, rad 48.00 -->
 <path d="M8710 4208 L8752 4206 L8793 4201 L8834 4192 L8874 4179 L8913 4163 L8950 4144 L8985 4121 L9019 4096 L9049 4067 L9078 4037 L9103 4003 L9126 3968 L9145 3931 L9161 3892 L9174 3852 L9183 3811 L9188 3770 L9190 3728 L9188 3686 L9183 3645 L9174 3604 L9161 3564 L9145 3525 L9126 3488 L9103 3453 L9078 3419 L9049 3389 L9019 3360 L8985 3335 L8950 3312 L8913 3293 L8874 3277 L8834 3264 L8793 3255 L8752 3250 L8710 3248 L8710 3248 " stroke="red" stroke-width="20" fill="none" />"

# str: xPos    871, yPos 59, dir -180, len 112.00
  <line   x1="8710" y1="4208" x2="7590" y2="4208" style="stroke:red;stroke-width:20" />
# lbl: R, xPos 759.05, yPos 59.15, dir -180.00
  <text x="7590" y="4208" font-family="Verdana" font-size="150">R</text>

# curve: rad 0.0, dAng -90.0, color red
#   col red
 <!-- arc (759, 113) a0 -90, a1 -180, rad 54.00 -->
 <path d="M7050 3668 L7052 3715 L7058 3762 L7068 3808 L7083 3853 L7101 3896 L7122 3938 L7148 3978 L7176 4015 L7208 4050 L7243 4082 L7280 4110 L7320 4136 L7362 4157 L7405 4175 L7450 4190 L7496 4200 L7543 4206 L7590 4208 L7590 4208 " stroke="red" stroke-width="20" fill="none" />"

# str: xPos    705, yPos 113, dir -270, len 150.00
  <line   x1="7050" y1="3668" x2="7050" y2="2168" style="stroke:red;stroke-width:20" />

# curve: rad 0.0, dAng 60.0, color red
#   col red
 <!-- arc (657, 263) a0 -360, a1 -300, rad 48.00 -->
 <path d="M7050 2168 L7048 2126 L7043 2085 L7034 2044 L7021 2004 L7005 1965 L6986 1928 L6963 1893 L6938 1859 L6909 1829 L6879 1800 L6845 1775 L6810 1752 L6810 1752 " stroke="red" stroke-width="20" fill="none" />"
# lbl: S, xPos 681.05, yPos 304.72, dir -210.00
  <text x="6810" y="1752" font-family="Verdana" font-size="150">S</text>

# str: xPos    681, yPos 304, dir -210, len 180.00
  <line   x1="6810" y1="1752" x2="5251" y2="852" style="stroke:red;stroke-width:20" />

# curve: rad 0.0, dAng 30.0, color red
#   col red
 <!-- arc (495, 342) a0 -300, a1 -270, rad 60.00 -->
 <path d="M5251 852 L5205 828 L5156 808 L5106 792 L5055 781 L5003 774 L4951 772 L4951 772 " stroke="red" stroke-width="20" fill="none" />"

# str: xPos    495, yPos 402, dir -180, len 60.00
  <line   x1="4951" y1="772" x2="4351" y2="772" style="stroke:red;stroke-width:20" />

# curve: rad 0.0, dAng 180.0, color red
#   col red
 <!-- arc (435, 365) a0 -270, a1 -90, rad 37.00 -->
 <path d="M4351 772 L4319 773 L4287 778 L4255 785 L4225 794 L4195 807 L4166 821 L4139 839 L4113 858 L4090 880 L4068 904 L4048 930 L4031 957 L4016 986 L4004 1015 L3994 1046 L3987 1078 L3983 1110 L3981 1142 L3983 1174 L3987 1206 L3994 1238 L4004 1268 L4016 1298 L4031 1327 L4048 1354 L4068 1380 L4090 1404 L4113 1425 L4139 1445 L4166 1462 L4195 1477 L4225 1490 L4255 1499 L4287 1506 L4319 1510 L4351 1512 L4351 1512 " stroke="red" stroke-width="20" fill="none" />"

# str: xPos    435, yPos 328, dir 0, len 60.00
  <line   x1="4351" y1="1512" x2="4951" y2="1512" style="stroke:red;stroke-width:20" />

# curve: rad 0.0, dAng -180.0, color red
#   col red
 <!-- arc (495, 288) a0 90, a1 -90, rad 40.00 -->
 <path d="M4951 2312 L4986 2310 L5021 2306 L5055 2298 L5088 2288 L5120 2274 L5151 2258 L5181 2240 L5208 2218 L5234 2195 L5258 2169 L5279 2141 L5298 2112 L5314 2081 L5327 2049 L5338 2015 L5345 1981 L5350 1947 L5351 1912 L5350 1877 L5345 1842 L5338 1808 L5327 1775 L5314 1743 L5298 1712 L5279 1682 L5258 1655 L5234 1629 L5208 1605 L5181 1584 L5151 1565 L5120 1549 L5088 1536 L5055 1526 L5021 1518 L4986 1513 L4951 1512 L4951 1512 " stroke="red" stroke-width="20" fill="none" />"

# str: xPos    495, yPos 248, dir -180, len 60.00
  <line   x1="4951" y1="2312" x2="4351" y2="2312" style="stroke:red;stroke-width:20" />

# curve: rad 0.0, dAng -30.0, color red
#   col red
 <!-- arc (435, 296) a0 -90, a1 -120, rad 48.00 -->
 <path d="M4111 2248 L4148 2267 L4187 2283 L4227 2296 L4268 2305 L4309 2310 L4351 2312 L4351 2312 " stroke="red" stroke-width="20" fill="none" />"
# lbl: T, xPos 411.17, yPos 255.19, dir -210.00
  <text x="4111" y="2248" font-family="Verdana" font-size="150">T</text>

# str: xPos    411, yPos 255, dir -210, len 240.00
  <line   x1="4111" y1="2248" x2="2033" y2="1048" style="stroke:red;stroke-width:20" />

# curve: rad 0.0, dAng 30.0, color red
#   col red
 <!-- arc (179, 333) a0 -300, a1 -270, rad 48.00 -->
 <path d="M2033 1048 L1996 1028 L1957 1012 L1917 1000 L1876 991 L1835 985 L1793 983 L1793 983 " stroke="red" stroke-width="20" fill="none" />"

# str: xPos    179, yPos 381, dir -180, len 60.00
  <line   x1="1793" y1="983" x2="1193" y2="983" style="stroke:red;stroke-width:20" />

# curve: rad 0.0, dAng 170.0, color red
#   col red
 <!-- arc (119, 337) a0 -270, a1 -100, rad 44.00 -->
 <path d="M1193 983 L1154 985 L1116 990 L1079 998 L1042 1010 L1007 1025 L973 1042 L940 1063 L910 1086 L882 1112 L856 1140 L832 1171 L812 1203 L794 1237 L779 1273 L768 1309 L759 1347 L754 1385 L753 1423 L754 1462 L759 1500 L768 1537 L779 1574 L794 1609 L812 1643 L832 1676 L856 1706 L882 1734 L910 1760 L940 1784 L973 1804 L1007 1822 L1042 1837 L1079 1848 L1116 1857 L1116 1857 " stroke="red" stroke-width="20" fill="none" />"
# lbl: U, xPos 111.68, yPos 294.29, dir -10.00
  <text x="1116" y="1857" font-family="Verdana" font-size="150">U</text>

# str: xPos    111, yPos 294, dir -10, len 100.00
  <line   x1="1116" y1="1857" x2="2101" y2="2030" style="stroke:red;stroke-width:20" />

# curve: rad 0.0, dAng -160.0, color red
#   col red
 <!-- arc (201, 229) a0 80, a1 -80, rad 48.00 -->
 <path d="M2101 2976 L2142 2967 L2182 2954 L2221 2938 L2258 2919 L2293 2896 L2326 2871 L2357 2842 L2385 2811 L2411 2778 L2433 2743 L2453 2706 L2469 2667 L2481 2627 L2491 2586 L2496 2545 L2498 2503 L2496 2461 L2491 2420 L2481 2379 L2469 2339 L2453 2300 L2433 2263 L2411 2228 L2385 2194 L2357 2164 L2326 2135 L2293 2110 L2258 2087 L2221 2068 L2182 2052 L2142 2039 L2101 2030 L2101 2030 " stroke="red" stroke-width="20" fill="none" />"

# str: xPos    210, yPos 182, dir -170, len 90.00
  <line   x1="2101" y1="2976" x2="1215" y2="3132" style="stroke:red;stroke-width:20" />

# curve: rad 0.0, dAng 170.0, color red
#   col red
 <!-- arc (129, 119) a0 -260, a1 -90, rad 48.00 -->
 <path d="M1215 3132 L1174 3141 L1134 3154 L1095 3170 L1058 3189 L1023 3211 L990 3237 L959 3265 L930 3296 L905 3329 L882 3365 L863 3402 L847 3440 L835 3480 L825 3521 L820 3563 L818 3605 L820 3646 L825 3688 L835 3729 L847 3769 L863 3808 L882 3845 L905 3880 L930 3913 L959 3944 L990 3972 L1023 3998 L1058 4020 L1095 4040 L1134 4056 L1174 4068 L1215 4077 L1256 4083 L1298 4085 L1298 4085 " stroke="red" stroke-width="20" fill="none" />"
# lbl: V, xPos 129.87, yPos 71.49, dir 0.00
  <text x="1298" y="4085" font-family="Verdana" font-size="150">V</text>

# str: xPos    129, yPos 71, dir 0, len 180.00
  <line   x1="1298" y1="4085" x2="3098" y2="4085" style="stroke:red;stroke-width:20" />

# curve: rad 0.0, dAng -10.0, color red
#   col red
 <!-- arc (309, 15) a0 90, a1 80, rad 56.00 -->
 <path d="M3195 4093 L3147 4087 L3098 4085 L3098 4085 " stroke="red" stroke-width="20" fill="none" />"

# str: xPos    319, yPos 70, dir -10, len 70.00
  <line   x1="3195" y1="4093" x2="3885" y2="4215" style="stroke:red;stroke-width:20" />

# curve: rad 0.0, dAng 215.0, color red
#   col red
 <!-- arc (395, 99) a0 -100, a1 115, rad 42.00 -->
 <path d="M3885 4215 L3921 4219 L3958 4221 L3994 4219 L4031 4215 L4066 4207 L4101 4196 L4135 4182 L4168 4165 L4199 4145 L4228 4123 L4255 4098 L4279 4071 L4302 4042 L4321 4011 L4338 3979 L4352 3945 L4363 3910 L4371 3874 L4376 3838 L4378 3801 L4376 3764 L4371 3728 L4363 3692 L4352 3657 L4338 3624 L4321 3591 L4302 3560 L4279 3531 L4255 3504 L4228 3479 L4199 3457 L4168 3437 L4135 3420 L4101 3406 L4066 3395 L4031 3387 L3994 3383 L3958 3381 L3921 3383 L3885 3387 L3849 3395 L3814 3406 L3780 3420 L3780 3420 " stroke="red" stroke-width="20" fill="none" />"
# lbl: W, xPos 378.07, yPos 137.91, dir 205.00
  <text x="3780" y="3420" font-family="Verdana" font-size="150">W</text>

# str: xPos    378, yPos 137, dir 205, len 134.00
  <line   x1="3780" y1="3420" x2="2566" y2="3987" style="stroke:red;stroke-width:20" />

# curve: rad 0.0, dAng -25.0, color red
#   col red
 <!-- arc (232, 132) a0 295, a1 270, rad 56.00 -->
 <path d="M2329 4039 L2378 4037 L2426 4031 L2474 4020 L2521 4005 L2566 3987 L2566 3987 " stroke="red" stroke-width="20" fill="none" />"

# str: xPos    232, yPos 76, dir 180, len 100.00
  <line   x1="2329" y1="4039" x2="1329" y2="4039" style="stroke:red;stroke-width:20" />

# curve: rad 0.0, dAng -170.0, color red
#   col red
 <!-- arc (132, 120) a0 270, a1 100, rad 44.00 -->
 <path d="M1253 3166 L1215 3174 L1179 3186 L1143 3200 L1109 3218 L1077 3239 L1046 3262 L1018 3288 L992 3316 L969 3347 L948 3379 L930 3413 L916 3449 L904 3485 L896 3523 L891 3561 L889 3599 L891 3638 L896 3676 L904 3713 L916 3750 L930 3785 L948 3819 L969 3852 L992 3882 L1018 3910 L1046 3936 L1077 3960 L1109 3980 L1143 3998 L1179 4013 L1215 4024 L1253 4033 L1291 4038 L1329 4039 L1329 4039 " stroke="red" stroke-width="20" fill="none" />"

# str: xPos    125, yPos 163, dir 10, len 90.00
  <line   x1="1253" y1="3166" x2="2139" y2="3010" style="stroke:red;stroke-width:20" />

# curve: rad 0.0, dAng 160.0, color red
#   col red
 <!-- arc (204, 230) a0 -80, a1 80, rad 52.00 -->
 <path d="M2139 3010 L2183 3000 L2227 2986 L2268 2969 L2309 2948 L2347 2923 L2383 2896 L2416 2865 L2447 2832 L2475 2796 L2499 2758 L2520 2717 L2537 2675 L2551 2632 L2561 2588 L2567 2543 L2569 2498 L2567 2452 L2561 2407 L2551 2363 L2537 2320 L2520 2278 L2499 2238 L2475 2199 L2447 2163 L2416 2130 L2383 2099 L2347 2072 L2309 2047 L2268 2026 L2227 2009 L2183 1995 L2139 1985 L2139 1985 " stroke="red" stroke-width="20" fill="none" />"

# str: xPos    213, yPos 281, dir 170, len 100.00
  <line   x1="2139" y1="1985" x2="1154" y2="1812" style="stroke:red;stroke-width:20" />

# curve: rad 0.0, dAng -170.0, color red
#   col red
 <!-- arc (122, 338) a0 260, a1 90, rad 40.00 -->
 <path d="M1224 1018 L1189 1019 L1154 1024 L1120 1031 L1087 1042 L1055 1055 L1024 1071 L994 1090 L967 1111 L941 1135 L917 1161 L896 1188 L877 1218 L861 1249 L848 1281 L837 1314 L830 1348 L825 1383 L824 1418 L825 1453 L830 1487 L837 1521 L848 1555 L861 1587 L877 1618 L896 1647 L917 1675 L941 1701 L967 1724 L994 1746 L1024 1764 L1055 1780 L1087 1794 L1120 1804 L1154 1812 L1154 1812 " stroke="red" stroke-width="20" fill="none" />"

# str: xPos    122, yPos 378, dir 0, len 50.00
  <line   x1="1224" y1="1018" x2="1724" y2="1018" style="stroke:red;stroke-width:20" />
# lbl: X, xPos 172.42, yPos 378.17, dir 0.00
  <text x="1724" y="1018" font-family="Verdana" font-size="150">X</text>

# curve: rad 0.0, dAng -30.0, color red
#   col red
 <!-- arc (172, 322) a0 90, a1 60, rad 56.00 -->
 <path d="M2004 1093 L1960 1070 L1915 1052 L1869 1037 L1821 1026 L1772 1020 L1724 1018 L1724 1018 " stroke="red" stroke-width="20" fill="none" />"

# str: xPos    200, yPos 370, dir -30, len 242.00
  <line   x1="2004" y1="1093" x2="4099" y2="2303" style="stroke:red;stroke-width:20" />

# curve: rad 0.0, dAng 30.0, color red
#   col red
 <!-- arc (435, 294) a0 -120, a1 -90, rad 52.00 -->
 <path d="M4099 2303 L4140 2324 L4182 2341 L4225 2355 L4269 2365 L4314 2371 L4359 2373 L4359 2373 " stroke="red" stroke-width="20" fill="none" />"

# str: xPos    435, yPos 242, dir 0, len 58.00
  <line   x1="4359" y1="2373" x2="4939" y2="2373" style="stroke:red;stroke-width:20" />

# curve: rad 0.0, dAng 180.0, color red
#   col red
 <!-- arc (493, 287) a0 -90, a1 90, rad 45.00 -->
 <path d="M4939 2373 L4979 2371 L5018 2366 L5056 2357 L5093 2345 L5130 2330 L5164 2312 L5198 2291 L5229 2267 L5258 2241 L5284 2212 L5308 2181 L5329 2148 L5347 2113 L5362 2076 L5374 2039 L5383 2001 L5388 1962 L5389 1923 L5388 1883 L5383 1844 L5374 1806 L5362 1769 L5347 1732 L5329 1698 L5308 1664 L5284 1633 L5258 1604 L5229 1578 L5198 1554 L5164 1533 L5130 1515 L5093 1500 L5056 1488 L5018 1479 L4979 1474 L4939 1473 L4939 1473 " stroke="red" stroke-width="20" fill="none" />"

# str: xPos    493, yPos 332, dir 180, len 60.00
  <line   x1="4939" y1="1473" x2="4339" y2="1473" style="stroke:red;stroke-width:20" />

# curve: rad 0.0, dAng -180.0, color red
#   col red
 <!-- arc (433, 364) a0 270, a1 90, rad 32.00 -->
 <path d="M4339 833 L4312 834 L4284 837 L4257 843 L4230 852 L4204 863 L4179 875 L4156 890 L4134 907 L4113 926 L4094 947 L4077 969 L4062 993 L4049 1017 L4039 1043 L4030 1070 L4024 1097 L4021 1125 L4019 1153 L4021 1180 L4024 1208 L4030 1235 L4039 1262 L4049 1288 L4062 1313 L4077 1336 L4094 1358 L4113 1379 L4134 1398 L4156 1415 L4179 1430 L4204 1443 L4230 1453 L4257 1462 L4284 1468 L4312 1471 L4339 1473 L4339 1473 " stroke="red" stroke-width="20" fill="none" />"

# str: xPos    433, yPos 396, dir 0, len 60.00
  <line   x1="4339" y1="833" x2="4939" y2="833" style="stroke:red;stroke-width:20" />

# curve: rad 0.0, dAng -30.0, color red
#   col red
 <!-- arc (493, 340) a0 90, a1 60, rad 56.00 -->
 <path d="M5219 908 L5176 885 L5131 866 L5084 852 L5037 841 L4988 835 L4939 833 L4939 833 " stroke="red" stroke-width="20" fill="none" />"

# str: xPos    521, yPos 389, dir -30, len 180.00
  <line   x1="5219" y1="908" x2="6778" y2="1808" style="stroke:red;stroke-width:20" />

# curve: rad 0.0, dAng -60.0, color red
#   col red
 <!-- arc (655, 261) a0 60, a1 0, rad 44.00 -->
 <path d="M6998 2189 L6997 2150 L6992 2112 L6983 2075 L6972 2038 L6957 2003 L6939 1969 L6919 1936 L6895 1906 L6869 1877 L6841 1852 L6811 1828 L6778 1808 L6778 1808 " stroke="red" stroke-width="20" fill="none" />"

# str: xPos    699, yPos 261, dir -90, len 151.00
  <line   x1="6998" y1="2189" x2="6998" y2="3699" style="stroke:red;stroke-width:20" />

# curve: rad 0.0, dAng 90.0, color red
#   col red
 <!-- arc (757, 110) a0 -180, a1 -90, rad 58.00 -->
 <path d="M6998 3699 L7000 3749 L7007 3799 L7018 3849 L7033 3897 L7053 3944 L7076 3989 L7103 4031 L7134 4071 L7168 4109 L7205 4143 L7246 4174 L7288 4201 L7333 4224 L7380 4244 L7428 4259 L7478 4270 L7528 4276 L7578 4279 L7578 4279 " stroke="red" stroke-width="20" fill="none" />"

# str: xPos    757, yPos 52, dir 0, len 50.00
  <line   x1="7578" y1="4279" x2="8078" y2="4279" style="stroke:red;stroke-width:20" />
</svg>

