<!-- md.trk -->
<svg version="1.1" baseProfile="full"
     width="9300" height="4800"
     xmlns="http://www.w3.org/2000/svg">
  <rect width="100%" height="100%" fill="beige"/>

<path d="M480 4320 L4560 4320 L4560 3120 L3720 3120 L2040 3840 L990 3840 L990 3390 L2040 3390 L3580 2610 L2040 1710 L990 1710 L990 1250 L2040 1250 L4230 2400 L5020 2400 L5150 2390 L5260 2340 L5360 2260 L5440 2160 L5490 2050 L5500 1920 L5490 1800 L5440 1680 L5360 1590 L5260 1510 L5150 1460 L5020 1440 L4270 1440 L4270 960 L5020 960 L6690 1790 L6970 2310 L6970 2670 L6610 3240 L5650 3240 L5650 2880 L5400 2880 L5400 4320 L8700 4320 L8850 4300 L9000 4250 L9120 4150 L9210 4020 L9270 3880 L9300 3720 L9270 3570 L9210 3420 L9120 3300 L9000 3210 L8850 3150 L8700 3120 L8130 3120 L8130 480 L480 480 L480 2160 L1110 2160 L1110 2760 L480 2760 L480 4320" stroke="black" stroke-width="20" fill="none" />
  <text x="8130" y="480" font-family="Verdana" font-size="150">67x36'</text>
# lbl: A, xPos 810.00, yPos 316.00, dir 90.00
  <text x="8100" y="1640" font-family="Verdana" font-size="150">A</text>

# str: xPos    810, yPos 316, dir 90, len 64.00
  <line   x1="8100" y1="1640" x2="8100" y2="1000" style="stroke:blue;stroke-width:20" />

# curve: rad 0.0, dAng 90.0, color blue
#   col blue
 <!-- arc (762, 380) a0 0, a1 90, rad 48.00 -->
 <path d="M8100 1000 L8098 958 L8092 916 L8083 875 L8071 835 L8055 797 L8035 760 L8013 724 L7987 691 L7959 660 L7928 632 L7895 606 L7860 584 L7822 564 L7784 548 L7744 536 L7703 527 L7661 521 L7620 520 L7620 520 " stroke="blue" stroke-width="20" fill="none" />"

# str: xPos    762, yPos 428, dir 180, len 661.00
  <line   x1="7620" y1="520" x2="1010" y2="519" style="stroke:blue;stroke-width:20" />

# curve: rad 0.0, dAng 90.0, color blue
#   col blue
 <!-- arc (101, 380) a0 90, a1 180, rad 48.00 -->
 <path d="M1010 519 L968 521 L926 527 L885 536 L845 548 L807 564 L770 584 L734 606 L701 632 L670 660 L642 691 L616 724 L594 759 L574 797 L558 835 L546 875 L537 916 L531 958 L530 999 L530 999 " stroke="blue" stroke-width="20" fill="none" />"
# lbl: Sandpatch, xPos  53.00, yPos 380.00, dir 270.00
  <text x="530" y="999" font-family="Verdana" font-size="150">Sandpatch</text>

# str: xPos     53, yPos 380, dir 270, len 40.00
  <line   x1="530" y1="999" x2="529" y2="1399" style="stroke:blue;stroke-width:20" />

# curve: rad 0.0, dAng 90.0, color blue
#   col blue
 <!-- arc (113, 340) a0 180, a1 270, rad 60.00 -->
 <path d="M530 1399 L532 1452 L539 1504 L550 1555 L566 1605 L586 1653 L610 1699 L638 1744 L670 1785 L705 1824 L744 1859 L785 1891 L829 1919 L876 1943 L924 1963 L974 1979 L1025 1990 L1077 1997 L1129 1999 L1129 1999 " stroke="blue" stroke-width="20" fill="none" />"

# str: xPos    112, yPos 280, dir 0, len 100.00
  <line   x1="1129" y1="1999" x2="2130" y2="1999" style="stroke:blue;stroke-width:20" />

# curve: rad 0.0, dAng -170.0, color blue
#   col blue
 <!-- arc (213, 230) a0 90, a1 -80, rad 50.00 -->
 <path d="M2216 2992 L2259 2982 L2301 2969 L2341 2953 L2380 2933 L2416 2909 L2451 2883 L2483 2853 L2513 2821 L2539 2786 L2563 2749 L2583 2711 L2599 2671 L2612 2629 L2622 2586 L2628 2543 L2630 2499 L2628 2456 L2622 2413 L2612 2370 L2599 2328 L2583 2288 L2563 2249 L2539 2213 L2513 2178 L2483 2146 L2451 2116 L2416 2090 L2380 2066 L2341 2046 L2301 2030 L2259 2017 L2216 2007 L2173 2001 L2130 1999 L2130 1999 " stroke="blue" stroke-width="20" fill="none" />"
# lbl: Salisburry, xPos 221.68, yPos 180.76, dir -170.00
  <text x="2216" y="2992" font-family="Verdana" font-size="150">Salisburry</text>

# str: xPos    221, yPos 180, dir -170, len 130.00
  <line   x1="2216" y1="2992" x2="936" y2="3218" style="stroke:blue;stroke-width:20" />

# curve: rad 0.0, dAng 80.0, color blue
#   col blue
 <!-- arc (101, 110) a0 -260, a1 -180, rad 48.00 -->
 <path d="M936 3218 L895 3227 L855 3239 L817 3255 L779 3275 L744 3297 L711 3323 L680 3351 L652 3382 L626 3415 L604 3450 L584 3487 L568 3526 L556 3566 L547 3607 L541 3649 L539 3690 L539 3690 " stroke="blue" stroke-width="20" fill="none" />"

# str: xPos     53, yPos 110, dir -90, len 10.00
  <line   x1="539" y1="3690" x2="539" y2="3790" style="stroke:blue;stroke-width:20" />
# lbl: Garret, xPos  53.99, yPos 100.91, dir -90.00
  <text x="539" y="3790" font-family="Verdana" font-size="150">Garret</text>

# curve: rad 0.0, dAng 90.0, color green
#   col green
 <!-- arc (101, 100) a0 -180, a1 -90, rad 48.00 -->
 <path d="M539 3790 L541 3832 L547 3874 L556 3915 L568 3955 L584 3993 L604 4030 L626 4066 L652 4099 L680 4130 L711 4158 L744 4184 L779 4206 L817 4225 L855 4241 L895 4254 L936 4263 L978 4269 L1019 4270 L1019 4270 " stroke="green" stroke-width="20" fill="none" />"

# str: xPos    101, yPos 52, dir 0, len 296.00
  <line   x1="1019" y1="4270" x2="3979" y2="4270" style="stroke:green;stroke-width:20" />

# curve: rad 0.0, dAng 205.0, color green
#   col green
 <!-- arc (397, 106) a0 -90, a1 115, rad 54.00 -->
 <path d="M3979 4270 L4026 4268 L4073 4262 L4119 4252 L4164 4238 L4208 4220 L4249 4198 L4289 4173 L4327 4144 L4361 4112 L4393 4077 L4422 4040 L4447 4000 L4469 3959 L4487 3915 L4501 3870 L4511 3824 L4517 3777 L4519 3730 L4517 3683 L4511 3637 L4501 3591 L4487 3546 L4469 3502 L4447 3460 L4422 3421 L4393 3383 L4361 3349 L4327 3317 L4289 3288 L4249 3263 L4208 3241 L4164 3223 L4119 3209 L4073 3199 L4026 3192 L3979 3190 L3932 3192 L3886 3199 L3840 3209 L3795 3223 L3751 3241 L3751 3241 " stroke="green" stroke-width="20" fill="none" />"

# str: xPos    375, yPos 155, dir 205, len 220.00
  <line   x1="3751" y1="3241" x2="1757" y2="4171" style="stroke:green;stroke-width:20" />

# curve: rad 0.0, dAng -25.0, color green
#   col green
 <!-- arc (150, 117) a0 295, a1 270, rad 60.00 -->
 <path d="M1504 4227 L1556 4225 L1608 4218 L1659 4206 L1709 4191 L1757 4171 L1757 4171 " stroke="green" stroke-width="20" fill="none" />"

# str: xPos    150, yPos 57, dir 180, len 46.00
  <line   x1="1504" y1="4227" x2="1044" y2="4227" style="stroke:green;stroke-width:20" />

# curve: rad 0.0, dAng -90.0, color green
#   col green
 <!-- arc (104, 103) a0 270, a1 180, rad 46.00 -->
 <path d="M584 3767 L586 3807 L591 3847 L599 3886 L612 3924 L627 3961 L645 3997 L667 4031 L691 4063 L718 4092 L748 4119 L780 4144 L814 4165 L849 4184 L886 4199 L925 4211 L964 4220 L1004 4225 L1044 4227 L1044 4227 " stroke="green" stroke-width="20" fill="none" />"

# str: xPos     58, yPos 103, dir 90, len 6.00
  <line   x1="584" y1="3767" x2="584" y2="3707" style="stroke:blue;stroke-width:20" />

# curve: rad 0.0, dAng -80.0, color blue
#   col blue
 <!-- arc (104, 109) a0 180, a1 100, rad 46.00 -->
 <path d="M964 3254 L925 3263 L886 3275 L849 3290 L814 3309 L780 3330 L748 3355 L718 3382 L691 3411 L667 3443 L645 3477 L627 3513 L612 3550 L599 3588 L591 3627 L586 3667 L584 3707 L584 3707 " stroke="blue" stroke-width="20" fill="none" />"
# lbl: B, xPos  96.44, yPos 154.56, dir 10.00
  <text x="964" y="3254" font-family="Verdana" font-size="150">B</text>

# str: xPos     96, yPos 154, dir 10, len 130.00
  <line   x1="964" y1="3254" x2="2244" y2="3028" style="stroke:blue;stroke-width:20" />

# curve: rad 0.0, dAng 170.0, color blue
#   col blue
 <!-- arc (215, 230) a0 -80, a1 90, rad 54.00 -->
 <path d="M2244 3028 L2290 3018 L2335 3004 L2379 2986 L2420 2964 L2460 2939 L2497 2910 L2532 2878 L2564 2843 L2593 2806 L2618 2766 L2640 2725 L2658 2681 L2672 2636 L2682 2590 L2688 2543 L2690 2496 L2688 2449 L2682 2403 L2672 2357 L2658 2312 L2640 2268 L2618 2226 L2593 2187 L2564 2149 L2532 2115 L2497 2083 L2460 2054 L2420 2029 L2379 2007 L2335 1989 L2290 1975 L2244 1965 L2197 1958 L2150 1956 L2150 1956 " stroke="blue" stroke-width="20" fill="none" />"

# str: xPos    215, yPos 284, dir 180, len 102.00
  <line   x1="2150" y1="1956" x2="1130" y2="1956" style="stroke:blue;stroke-width:20" />

# curve: rad 0.0, dAng -90.0, color blue
#   col blue
 <!-- arc (113, 340) a0 270, a1 180, rad 56.00 -->
 <path d="M570 1396 L572 1445 L579 1494 L589 1541 L604 1588 L623 1633 L645 1676 L672 1718 L701 1756 L734 1792 L770 1825 L809 1855 L850 1881 L894 1904 L939 1923 L985 1937 L1033 1948 L1082 1954 L1130 1956 L1130 1956 " stroke="blue" stroke-width="20" fill="none" />"

# str: xPos     57, yPos 340, dir 90, len 40.00
  <line   x1="570" y1="1396" x2="570" y2="996" style="stroke:blue;stroke-width:20" />

# curve: rad 0.0, dAng -90.0, color blue
#   col blue
 <!-- arc (101, 380) a0 180, a1 90, rad 44.00 -->
 <path d="M1010 556 L972 558 L934 563 L896 571 L860 583 L824 598 L790 615 L758 636 L728 659 L699 685 L673 714 L650 744 L629 776 L612 810 L597 846 L585 882 L577 920 L572 958 L570 996 L570 996 " stroke="blue" stroke-width="20" fill="none" />"

# str: xPos    101, yPos 424, dir 0, len 660.00
  <line   x1="1010" y1="556" x2="7610" y2="556" style="stroke:blue;stroke-width:20" />

# curve: rad 0.0, dAng -90.0, color blue
#   col blue
 <!-- arc (761, 380) a0 90, a1 0, rad 44.00 -->
 <path d="M8050 996 L8049 958 L8044 920 L8035 882 L8024 846 L8009 810 L7991 776 L7971 744 L7947 714 L7921 685 L7893 659 L7863 636 L7830 615 L7796 598 L7761 583 L7724 571 L7687 563 L7649 558 L7610 556 L7610 556 " stroke="blue" stroke-width="20" fill="none" />"

# str: xPos    805, yPos 380, dir -90, len 120.00
  <line   x1="8050" y1="996" x2="8050" y2="2196" style="stroke:blue;stroke-width:20" />
# lbl: C, xPos 805.09, yPos 260.31, dir -90.00
  <text x="8050" y="2196" font-family="Verdana" font-size="150">C</text>

# curve: rad 0.0, dAng -20.0, color blue
#   col blue
 <!-- arc (745, 260) a0 0, a1 -20, rad 60.00 -->
 <path d="M8014 2402 L8030 2352 L8041 2301 L8048 2249 L8050 2196 L8050 2196 " stroke="blue" stroke-width="20" fill="none" />"

# str: xPos    801, yPos 239, dir -110, len 76.00
  <line   x1="8014" y1="2402" x2="7754" y2="3116" style="stroke:blue;stroke-width:20" />

# curve: rad 0.0, dAng 110.0, color blue
#   col blue
 <!-- arc (850, 141) a0 -200, a1 -90, rad 80.00 -->
 <path d="M7754 3116 L7733 3182 L7718 3250 L7709 3320 L7706 3389 L7709 3459 L7718 3528 L7733 3596 L7754 3663 L7781 3727 L7813 3789 L7851 3848 L7893 3904 L7940 3955 L7992 4002 L8047 4045 L8106 4082 L8168 4114 L8232 4141 L8299 4162 L8367 4177 L8436 4186 L8506 4189 L8506 4189 " stroke="blue" stroke-width="20" fill="none" />"

# str: xPos    850, yPos 61, dir 0, len 20.00
  <line   x1="8506" y1="4189" x2="8706" y2="4189" style="stroke:blue;stroke-width:20" />

# curve: rad 0.0, dAng 180.0, color blue
#   col blue
 <!-- arc (870, 105) a0 -90, a1 90, rad 44.00 -->
 <path d="M8706 4189 L8744 4188 L8782 4183 L8820 4174 L8856 4163 L8892 4148 L8926 4130 L8958 4110 L8989 4086 L9017 4060 L9043 4032 L9066 4002 L9087 3969 L9105 3935 L9119 3900 L9131 3863 L9139 3826 L9144 3788 L9146 3749 L9144 3711 L9139 3673 L9131 3635 L9119 3599 L9105 3563 L9087 3529 L9066 3497 L9043 3467 L9017 3438 L8989 3412 L8958 3389 L8926 3368 L8892 3351 L8856 3336 L8820 3324 L8782 3316 L8744 3311 L8706 3309 L8706 3309 " stroke="blue" stroke-width="20" fill="none" />"
# lbl: D, xPos 870.65, yPos 149.01, dir 180.00
  <text x="8706" y="3309" font-family="Verdana" font-size="150">D</text>

# str: xPos    870, yPos 149, dir 180, len 40.00
  <line   x1="8706" y1="3309" x2="8306" y2="3309" style="stroke:blue;stroke-width:20" />

# str: xPos    830, yPos 149, dir 180, len 200.00
  <line   x1="8306" y1="3309" x2="6306" y2="3309" style="stroke:green;stroke-width:20" />

# curve: rad 0.0, dAng 210.0, color green
#   col green
 <!-- arc (630, 101) a0 90, a1 300, rad 48.00 -->
 <path d="M6306 3309 L6264 3311 L6223 3317 L6182 3326 L6142 3338 L6103 3354 L6066 3374 L6031 3396 L5997 3422 L5967 3450 L5938 3481 L5913 3514 L5890 3549 L5871 3587 L5855 3625 L5842 3665 L5833 3706 L5828 3748 L5826 3789 L5828 3831 L5833 3873 L5842 3914 L5855 3954 L5871 3992 L5890 4029 L5913 4065 L5938 4098 L5967 4129 L5997 4157 L6031 4183 L6066 4205 L6103 4224 L6142 4240 L6182 4253 L6223 4262 L6264 4268 L6306 4269 L6348 4268 L6389 4262 L6430 4253 L6470 4240 L6509 4224 L6546 4205 L6546 4205 " stroke="green" stroke-width="20" fill="none" />"

# str: xPos    654, yPos 59, dir 30, len 158.00
  <line   x1="6546" y1="4205" x2="7914" y2="3415" style="stroke:green;stroke-width:20" />

# curve: rad 0.0, dAng -30.0, color green
#   col green
 <!-- arc (815, 96) a0 120, a1 90, rad 48.00 -->
 <path d="M8154 3351 L8112 3353 L8071 3358 L8030 3367 L7990 3380 L7951 3396 L7914 3415 L7914 3415 " stroke="green" stroke-width="20" fill="none" />"

# str: xPos    815, yPos 144, dir 0, len 54.00
  <line   x1="8154" y1="3351" x2="8694" y2="3351" style="stroke:blue;stroke-width:20" />

# curve: rad 0.0, dAng -180.0, color blue
#   col blue
 <!-- arc (869, 104) a0 90, a1 -90, rad 40.00 -->
 <path d="M8694 4151 L8729 4149 L8764 4145 L8798 4137 L8831 4127 L8863 4113 L8894 4097 L8924 4078 L8951 4057 L8977 4034 L9001 4008 L9022 3980 L9041 3951 L9057 3920 L9070 3888 L9081 3854 L9088 3820 L9093 3786 L9094 3751 L9093 3716 L9088 3681 L9081 3647 L9070 3614 L9057 3582 L9041 3551 L9022 3521 L9001 3494 L8977 3468 L8951 3444 L8924 3423 L8894 3404 L8863 3388 L8831 3375 L8798 3364 L8764 3357 L8729 3352 L8694 3351 L8694 3351 " stroke="blue" stroke-width="20" fill="none" />"
# lbl: E, xPos 869.48, yPos 64.87, dir -180.00
  <text x="8694" y="4151" font-family="Verdana" font-size="150">E</text>

# str: xPos    869, yPos 64, dir -180, len 18.00
  <line   x1="8694" y1="4151" x2="8514" y2="4151" style="stroke:blue;stroke-width:20" />

# curve: rad 0.0, dAng -110.0, color blue
#   col blue
 <!-- arc (851, 140) a0 -90, a1 -200, rad 76.00 -->
 <path d="M7800 3131 L7780 3194 L7766 3259 L7757 3325 L7754 3391 L7757 3457 L7766 3523 L7780 3587 L7800 3651 L7826 3712 L7856 3771 L7892 3827 L7932 3879 L7977 3928 L8026 3973 L8078 4013 L8134 4049 L8193 4080 L8254 4105 L8318 4125 L8382 4139 L8448 4148 L8514 4151 L8514 4151 " stroke="blue" stroke-width="20" fill="none" />"

# str: xPos    780, yPos 166, dir -290, len 76.00
  <line   x1="7800" y1="3131" x2="8060" y2="2417" style="stroke:blue;stroke-width:20" />

# curve: rad 0.0, dAng 20.0, color blue
#   col blue
 <!-- arc (749, 258) a0 -380, a1 -360, rad 60.00 -->
 <path d="M8060 2417 L8076 2367 L8087 2316 L8094 2264 L8096 2211 L8096 2211 " stroke="blue" stroke-width="20" fill="none" />"

# str: xPos    809, yPos 258, dir -270, len 60.00
  <line   x1="8096" y1="2211" x2="8096" y2="1611" style="stroke:blue;stroke-width:20" />
# lbl: P, xPos 810.00, yPos 52.00, dir 0.00
  <text x="8100" y="4280" font-family="Verdana" font-size="150">P</text>

# str: xPos    810, yPos 52, dir 0, len 60.00
  <line   x1="8100" y1="4280" x2="8700" y2="4280" style="stroke:red;stroke-width:20" />

# curve: rad 0.0, dAng 180.0, color red
#   col red
 <!-- arc (870, 106) a0 -90, a1 90, rad 54.00 -->
 <path d="M8700 4280 L8747 4277 L8793 4271 L8839 4261 L8884 4247 L8928 4229 L8970 4207 L9009 4182 L9047 4153 L9081 4121 L9113 4087 L9142 4049 L9167 4010 L9189 3968 L9207 3924 L9221 3879 L9231 3833 L9237 3787 L9240 3740 L9237 3692 L9231 3646 L9221 3600 L9207 3555 L9189 3511 L9167 3470 L9142 3430 L9113 3392 L9081 3358 L9047 3326 L9009 3297 L8970 3272 L8928 3250 L8884 3232 L8839 3218 L8793 3208 L8747 3202 L8700 3200 L8700 3200 " stroke="red" stroke-width="20" fill="none" />"

# str: xPos    870, yPos 160, dir 180, len 50.00
  <line   x1="8700" y1="3200" x2="8200" y2="3200" style="stroke:red;stroke-width:20" />

# curve: rad 0.0, dAng -100.0, color orange
#   col orange
 <!-- arc (820, 208) a0 270, a1 170, rad 48.00 -->
 <path d="M7727 2636 L7721 2678 L7720 2720 L7721 2761 L7727 2803 L7736 2844 L7748 2884 L7764 2922 L7784 2960 L7806 2995 L7832 3028 L7860 3059 L7891 3087 L7924 3113 L7960 3135 L7997 3155 L8035 3171 L8075 3183 L8116 3192 L8158 3198 L8200 3200 L8200 3200 " stroke="orange" stroke-width="20" fill="none" />"

# str: xPos    772, yPos 216, dir 80, len 130.00
  <line   x1="7727" y1="2636" x2="7953" y2="1356" style="stroke:orange;stroke-width:20" />

# curve: rad 0.0, dAng 100.0, color orange
#   col orange
 <!-- arc (736, 354) a0 -10, a1 90, rad 60.00 -->
 <path d="M7953 1356 L7959 1304 L7962 1252 L7959 1199 L7953 1148 L7941 1096 L7925 1046 L7905 998 L7881 952 L7853 908 L7821 866 L7786 827 L7747 792 L7706 760 L7662 732 L7615 708 L7567 688 L7517 672 L7466 661 L7414 654 L7362 652 L7362 652 " stroke="orange" stroke-width="20" fill="none" />"
# lbl: Q, xPos 736.22, yPos 414.78, dir 180.00
  <text x="7362" y="652" font-family="Verdana" font-size="150">Q</text>

# str: xPos    736, yPos 414, dir 180, len 80.00
  <line   x1="7362" y1="652" x2="6562" y2="652" style="stroke:orange;stroke-width:20" />

# curve: rad 0.0, dAng 150.0, color orange
#   col orange
 <!-- arc (656, 370) a0 90, a1 240, rad 44.00 -->
 <path d="M6562 652 L6523 653 L6485 658 L6448 667 L6411 678 L6376 693 L6342 711 L6309 731 L6279 755 L6251 781 L6225 809 L6201 839 L6181 872 L6163 906 L6148 941 L6137 978 L6128 1015 L6123 1053 L6122 1092 L6123 1130 L6128 1168 L6137 1206 L6148 1242 L6163 1278 L6181 1312 L6201 1344 L6225 1375 L6251 1403 L6279 1429 L6309 1452 L6342 1473 L6342 1473 " stroke="orange" stroke-width="20" fill="none" />"

# str: xPos    634, yPos 332, dir 330, len 60.00
  <line   x1="6342" y1="1473" x2="6861" y2="1773" style="stroke:orange;stroke-width:20" />

# curve: rad 0.0, dAng -50.0, color orange
#   col orange
 <!-- arc (661, 259) a0 420, a1 370, rad 50.00 -->
 <path d="M7104 2119 L7094 2076 L7081 2035 L7064 1994 L7044 1956 L7021 1919 L6994 1884 L6965 1852 L6933 1823 L6898 1796 L6861 1773 L6861 1773 " stroke="orange" stroke-width="20" fill="none" />"

# str: xPos    710, yPos 268, dir 280, len 74.00
  <line   x1="7104" y1="2119" x2="7232" y2="2848" style="stroke:orange;stroke-width:20" />

# curve: rad 0.0, dAng 80.0, color orange
#   col orange
 <!-- arc (772, 203) a0 190, a1 270, rad 50.00 -->
 <path d="M7232 2848 L7242 2890 L7255 2932 L7271 2972 L7292 3011 L7315 3048 L7342 3082 L7371 3114 L7403 3144 L7438 3170 L7475 3194 L7513 3214 L7554 3231 L7595 3244 L7638 3253 L7681 3259 L7725 3261 L7725 3261 " stroke="orange" stroke-width="20" fill="none" />"

# str: xPos    772, yPos 153, dir 0, len 50.00
  <line   x1="7725" y1="3261" x2="8225" y2="3261" style="stroke:orange;stroke-width:20" />

# str: xPos    822, yPos 153, dir 0, len 50.00
  <line   x1="8225" y1="3261" x2="8725" y2="3261" style="stroke:red;stroke-width:20" />

# curve: rad 0.0, dAng -180.0, color red
#   col red
 <!-- arc (872, 105) a0 90, a1 -90, rad 48.00 -->
 <path d="M8725 4221 L8766 4219 L8808 4214 L8849 4205 L8889 4192 L8927 4176 L8965 4157 L9000 4134 L9033 4109 L9064 4080 L9092 4049 L9118 4016 L9140 3981 L9160 3944 L9176 3905 L9188 3865 L9197 3824 L9203 3783 L9205 3741 L9203 3699 L9197 3658 L9188 3617 L9176 3577 L9160 3538 L9140 3501 L9118 3466 L9092 3432 L9064 3401 L9033 3373 L9000 3348 L8965 3325 L8927 3306 L8889 3290 L8849 3277 L8808 3268 L8766 3263 L8725 3261 L8725 3261 " stroke="red" stroke-width="20" fill="none" />"

# str: xPos    872, yPos 57, dir -180, len 112.00
  <line   x1="8725" y1="4221" x2="7605" y2="4221" style="stroke:red;stroke-width:20" />
# lbl: R, xPos 760.51, yPos 57.86, dir -180.00
  <text x="7605" y="4221" font-family="Verdana" font-size="150">R</text>

# curve: rad 0.0, dAng -90.0, color red
#   col red
 <!-- arc (760, 111) a0 -90, a1 -180, rad 54.00 -->
 <path d="M7065 3681 L7067 3728 L7073 3775 L7083 3821 L7097 3866 L7115 3909 L7137 3951 L7162 3991 L7191 4028 L7223 4063 L7257 4095 L7295 4123 L7335 4149 L7376 4170 L7420 4188 L7465 4202 L7511 4213 L7558 4219 L7605 4221 L7605 4221 " stroke="red" stroke-width="20" fill="none" />"

# str: xPos    706, yPos 111, dir -270, len 150.00
  <line   x1="7065" y1="3681" x2="7065" y2="2181" style="stroke:red;stroke-width:20" />

# curve: rad 0.0, dAng 60.0, color red
#   col red
 <!-- arc (658, 261) a0 -360, a1 -300, rad 48.00 -->
 <path d="M7065 2181 L7063 2139 L7057 2098 L7048 2057 L7036 2017 L7020 1978 L7000 1941 L6978 1906 L6952 1872 L6924 1841 L6893 1813 L6860 1788 L6825 1765 L6825 1765 " stroke="red" stroke-width="20" fill="none" />"
# lbl: S, xPos 682.51, yPos 303.43, dir -210.00
  <text x="6825" y="1765" font-family="Verdana" font-size="150">S</text>

# str: xPos    682, yPos 303, dir -210, len 180.00
  <line   x1="6825" y1="1765" x2="5266" y2="865" style="stroke:red;stroke-width:20" />

# curve: rad 0.0, dAng 30.0, color red
#   col red
 <!-- arc (496, 341) a0 -300, a1 -270, rad 60.00 -->
 <path d="M5266 865 L5219 841 L5171 821 L5121 805 L5070 794 L5018 787 L4966 785 L4966 785 " stroke="red" stroke-width="20" fill="none" />"

# str: xPos    496, yPos 401, dir -180, len 60.00
  <line   x1="4966" y1="785" x2="4366" y2="785" style="stroke:red;stroke-width:20" />

# curve: rad 0.0, dAng 180.0, color red
#   col red
 <!-- arc (436, 364) a0 -270, a1 -90, rad 37.00 -->
 <path d="M4366 785 L4333 786 L4301 790 L4270 797 L4239 807 L4209 819 L4181 834 L4154 852 L4128 871 L4104 893 L4082 917 L4063 943 L4045 970 L4030 998 L4018 1028 L4008 1059 L4001 1091 L3997 1123 L3996 1155 L3997 1187 L4001 1219 L4008 1251 L4018 1281 L4030 1311 L4045 1340 L4063 1367 L4082 1393 L4104 1416 L4128 1438 L4154 1458 L4181 1475 L4209 1490 L4239 1502 L4270 1512 L4301 1519 L4333 1523 L4366 1525 L4366 1525 " stroke="red" stroke-width="20" fill="none" />"

# str: xPos    436, yPos 327, dir 0, len 60.00
  <line   x1="4366" y1="1525" x2="4966" y2="1525" style="stroke:red;stroke-width:20" />

# curve: rad 0.0, dAng -180.0, color red
#   col red
 <!-- arc (496, 287) a0 90, a1 -90, rad 40.00 -->
 <path d="M4966 2325 L5001 2323 L5035 2319 L5069 2311 L5103 2301 L5135 2287 L5166 2271 L5195 2252 L5223 2231 L5249 2208 L5272 2182 L5293 2154 L5312 2125 L5328 2094 L5342 2062 L5352 2028 L5360 1994 L5364 1960 L5366 1925 L5364 1890 L5360 1855 L5352 1821 L5342 1788 L5328 1756 L5312 1725 L5293 1695 L5272 1668 L5249 1642 L5223 1618 L5195 1597 L5166 1578 L5135 1562 L5103 1549 L5069 1538 L5035 1531 L5001 1526 L4966 1525 L4966 1525 " stroke="red" stroke-width="20" fill="none" />"

# str: xPos    496, yPos 247, dir -180, len 60.00
  <line   x1="4966" y1="2325" x2="4366" y2="2325" style="stroke:red;stroke-width:20" />

# curve: rad 0.0, dAng -30.0, color red
#   col red
 <!-- arc (436, 295) a0 -90, a1 -120, rad 48.00 -->
 <path d="M4126 2260 L4163 2280 L4202 2296 L4241 2308 L4282 2318 L4324 2323 L4366 2325 L4366 2325 " stroke="red" stroke-width="20" fill="none" />"
# lbl: T, xPos 412.62, yPos 253.90, dir -210.00
  <text x="4126" y="2260" font-family="Verdana" font-size="150">T</text>

# str: xPos    412, yPos 253, dir -210, len 240.00
  <line   x1="4126" y1="2260" x2="2047" y2="1060" style="stroke:red;stroke-width:20" />

# curve: rad 0.0, dAng 30.0, color red
#   col red
 <!-- arc (180, 332) a0 -300, a1 -270, rad 48.00 -->
 <path d="M2047 1060 L2010 1041 L1971 1025 L1931 1013 L1891 1003 L1849 998 L1807 996 L1807 996 " stroke="red" stroke-width="20" fill="none" />"

# str: xPos    180, yPos 380, dir -180, len 60.00
  <line   x1="1807" y1="996" x2="1207" y2="996" style="stroke:red;stroke-width:20" />

# curve: rad 0.0, dAng 170.0, color red
#   col red
 <!-- arc (120, 336) a0 -270, a1 -100, rad 44.00 -->
 <path d="M1207 996 L1169 998 L1131 1003 L1093 1011 L1057 1023 L1021 1037 L987 1055 L955 1076 L924 1099 L896 1125 L870 1153 L847 1184 L826 1216 L808 1250 L794 1286 L782 1322 L774 1360 L769 1398 L767 1436 L769 1475 L774 1513 L782 1550 L794 1587 L808 1622 L826 1656 L847 1689 L870 1719 L896 1747 L924 1773 L955 1797 L987 1817 L1021 1835 L1057 1850 L1093 1861 L1131 1870 L1131 1870 " stroke="red" stroke-width="20" fill="none" />"
# lbl: U, xPos 113.14, yPos 293.00, dir -10.00
  <text x="1131" y="1870" font-family="Verdana" font-size="150">U</text>

# str: xPos    113, yPos 292, dir -10, len 100.00
  <line   x1="1131" y1="1870" x2="2116" y2="2043" style="stroke:red;stroke-width:20" />

# curve: rad 0.0, dAng -160.0, color red
#   col red
 <!-- arc (203, 228) a0 80, a1 -80, rad 48.00 -->
 <path d="M2116 2989 L2157 2980 L2196 2967 L2235 2951 L2272 2932 L2308 2909 L2341 2884 L2372 2855 L2400 2824 L2426 2791 L2448 2756 L2467 2719 L2483 2680 L2496 2640 L2505 2599 L2510 2558 L2512 2516 L2510 2474 L2505 2433 L2496 2392 L2483 2352 L2467 2313 L2448 2276 L2426 2241 L2400 2207 L2372 2176 L2341 2148 L2308 2123 L2272 2100 L2235 2081 L2196 2065 L2157 2052 L2116 2043 L2116 2043 " stroke="red" stroke-width="20" fill="none" />"

# str: xPos    211, yPos 181, dir -170, len 90.00
  <line   x1="2116" y1="2989" x2="1229" y2="3145" style="stroke:red;stroke-width:20" />

# curve: rad 0.0, dAng 170.0, color red
#   col red
 <!-- arc (131, 118) a0 -260, a1 -90, rad 48.00 -->
 <path d="M1229 3145 L1188 3154 L1149 3167 L1110 3183 L1073 3202 L1037 3224 L1004 3250 L973 3278 L945 3309 L919 3342 L897 3378 L878 3415 L862 3453 L849 3493 L840 3534 L835 3576 L833 3618 L835 3659 L840 3701 L849 3742 L862 3782 L878 3820 L897 3858 L919 3893 L945 3926 L973 3957 L1004 3985 L1037 4011 L1073 4033 L1110 4053 L1149 4069 L1188 4081 L1229 4090 L1271 4096 L1313 4098 L1313 4098 " stroke="red" stroke-width="20" fill="none" />"
# lbl: V, xPos 131.32, yPos 70.19, dir 0.00
  <text x="1313" y="4098" font-family="Verdana" font-size="150">V</text>

# str: xPos    131, yPos 70, dir 0, len 180.00
  <line   x1="1313" y1="4098" x2="3113" y2="4098" style="stroke:red;stroke-width:20" />

# curve: rad 0.0, dAng -10.0, color red
#   col red
 <!-- arc (311, 14) a0 90, a1 80, rad 56.00 -->
 <path d="M3210 4106 L3162 4100 L3113 4098 L3113 4098 " stroke="red" stroke-width="20" fill="none" />"

# str: xPos    321, yPos 69, dir -10, len 70.00
  <line   x1="3210" y1="4106" x2="3899" y2="4228" style="stroke:red;stroke-width:20" />

# curve: rad 0.0, dAng 215.0, color red
#   col red
 <!-- arc (397, 98) a0 -100, a1 115, rad 42.00 -->
 <path d="M3899 4228 L3936 4232 L3972 4234 L4009 4232 L4045 4228 L4081 4220 L4116 4209 L4150 4195 L4182 4178 L4213 4158 L4242 4136 L4269 4111 L4294 4084 L4316 4055 L4336 4024 L4353 3992 L4367 3958 L4378 3923 L4386 3887 L4391 3851 L4392 3814 L4391 3777 L4386 3741 L4378 3705 L4367 3670 L4353 3637 L4336 3604 L4316 3573 L4294 3544 L4269 3517 L4242 3492 L4213 3470 L4182 3450 L4150 3433 L4116 3419 L4081 3408 L4045 3400 L4009 3396 L3972 3394 L3936 3396 L3899 3400 L3864 3408 L3829 3419 L3795 3433 L3795 3433 " stroke="red" stroke-width="20" fill="none" />"
# lbl: W, xPos 379.52, yPos 136.61, dir 205.00
  <text x="3795" y="3433" font-family="Verdana" font-size="150">W</text>

# str: xPos    379, yPos 136, dir 205, len 134.00
  <line   x1="3795" y1="3433" x2="2580" y2="4000" style="stroke:red;stroke-width:20" />

# curve: rad 0.0, dAng -25.0, color red
#   col red
 <!-- arc (234, 130) a0 295, a1 270, rad 56.00 -->
 <path d="M2344 4052 L2392 4050 L2441 4044 L2489 4033 L2535 4018 L2580 4000 L2580 4000 " stroke="red" stroke-width="20" fill="none" />"

# str: xPos    234, yPos 74, dir 180, len 100.00
  <line   x1="2344" y1="4052" x2="1344" y2="4052" style="stroke:red;stroke-width:20" />

# curve: rad 0.0, dAng -170.0, color red
#   col red
 <!-- arc (134, 118) a0 270, a1 100, rad 44.00 -->
 <path d="M1267 3179 L1230 3187 L1193 3199 L1158 3213 L1124 3231 L1091 3252 L1061 3275 L1032 3301 L1007 3329 L983 3360 L963 3392 L945 3426 L930 3462 L919 3498 L910 3536 L905 3574 L904 3612 L905 3650 L910 3689 L919 3726 L930 3763 L945 3798 L963 3832 L983 3865 L1007 3895 L1032 3923 L1061 3949 L1091 3973 L1124 3993 L1158 4011 L1193 4026 L1230 4037 L1267 4045 L1305 4050 L1344 4052 L1344 4052 " stroke="red" stroke-width="20" fill="none" />"

# str: xPos    126, yPos 162, dir 10, len 90.00
  <line   x1="1267" y1="3179" x2="2154" y2="3023" style="stroke:red;stroke-width:20" />

# curve: rad 0.0, dAng 160.0, color red
#   col red
 <!-- arc (206, 228) a0 -80, a1 80, rad 52.00 -->
 <path d="M2154 3023 L2198 3013 L2241 2999 L2283 2982 L2323 2961 L2361 2936 L2397 2909 L2431 2878 L2462 2845 L2489 2809 L2514 2770 L2535 2730 L2552 2688 L2566 2645 L2575 2601 L2581 2556 L2583 2510 L2581 2465 L2575 2420 L2566 2376 L2552 2333 L2535 2291 L2514 2250 L2489 2212 L2462 2176 L2431 2143 L2397 2112 L2361 2084 L2323 2060 L2283 2039 L2241 2022 L2198 2008 L2154 1998 L2154 1998 " stroke="red" stroke-width="20" fill="none" />"

# str: xPos    215, yPos 280, dir 170, len 100.00
  <line   x1="2154" y1="1998" x2="1169" y2="1825" style="stroke:red;stroke-width:20" />

# curve: rad 0.0, dAng -170.0, color red
#   col red
 <!-- arc (123, 336) a0 260, a1 90, rad 40.00 -->
 <path d="M1238 1031 L1203 1032 L1169 1037 L1135 1044 L1101 1055 L1069 1068 L1038 1084 L1009 1103 L981 1124 L955 1148 L932 1174 L911 1201 L892 1231 L876 1262 L862 1294 L852 1327 L844 1361 L840 1396 L838 1431 L840 1466 L844 1500 L852 1534 L862 1568 L876 1600 L892 1631 L911 1660 L932 1688 L955 1714 L981 1737 L1009 1758 L1038 1777 L1069 1793 L1101 1807 L1135 1817 L1169 1825 L1169 1825 " stroke="red" stroke-width="20" fill="none" />"

# str: xPos    123, yPos 376, dir 0, len 54.00
  <line   x1="1238" y1="1031" x2="1778" y2="1031" style="stroke:red;stroke-width:20" />

# curve: rad 0.0, dAng -30.0, color red
#   col red
 <!-- arc (177, 320) a0 90, a1 60, rad 56.00 -->
 <path d="M2058 1106 L2015 1083 L1970 1065 L1923 1050 L1875 1039 L1827 1033 L1778 1031 L1778 1031 " stroke="red" stroke-width="20" fill="none" />"

# str: xPos    205, yPos 369, dir -30, len 240.00
  <line   x1="2058" y1="1106" x2="4137" y2="2306" style="stroke:red;stroke-width:20" />

# curve: rad 0.0, dAng 30.0, color red
#   col red
 <!-- arc (439, 294) a0 -120, a1 -90, rad 52.00 -->
 <path d="M4137 2306 L4177 2327 L4219 2344 L4262 2358 L4306 2368 L4351 2373 L4397 2375 L4397 2375 " stroke="red" stroke-width="20" fill="none" />"

# str: xPos    439, yPos 242, dir 0, len 56.00
  <line   x1="4397" y1="2375" x2="4957" y2="2375" style="stroke:red;stroke-width:20" />

# curve: rad 0.0, dAng 180.0, color red
#   col red
 <!-- arc (495, 287) a0 -90, a1 90, rad 45.00 -->
 <path d="M4957 2375 L4996 2374 L5035 2369 L5073 2360 L5111 2348 L5147 2333 L5182 2315 L5215 2294 L5246 2270 L5275 2244 L5301 2215 L5325 2184 L5346 2150 L5364 2116 L5380 2079 L5391 2042 L5400 2004 L5405 1965 L5407 1925 L5405 1886 L5400 1847 L5391 1809 L5380 1772 L5364 1735 L5346 1700 L5325 1667 L5301 1636 L5275 1607 L5246 1581 L5215 1557 L5182 1536 L5147 1518 L5111 1503 L5073 1491 L5035 1482 L4996 1477 L4957 1475 L4957 1475 " stroke="red" stroke-width="20" fill="none" />"

# str: xPos    495, yPos 332, dir 180, len 60.00
  <line   x1="4957" y1="1475" x2="4357" y2="1475" style="stroke:red;stroke-width:20" />

# curve: rad 0.0, dAng -180.0, color red
#   col red
 <!-- arc (435, 364) a0 270, a1 90, rad 32.00 -->
 <path d="M4357 835 L4329 837 L4301 840 L4274 846 L4247 855 L4221 865 L4197 878 L4173 893 L4151 910 L4130 929 L4112 950 L4095 972 L4080 995 L4067 1020 L4056 1046 L4048 1073 L4042 1100 L4038 1128 L4037 1155 L4038 1183 L4042 1211 L4048 1238 L4056 1265 L4067 1291 L4080 1315 L4095 1339 L4112 1361 L4130 1382 L4151 1401 L4173 1418 L4197 1433 L4221 1445 L4247 1456 L4274 1465 L4301 1471 L4329 1474 L4357 1475 L4357 1475 " stroke="red" stroke-width="20" fill="none" />"

# str: xPos    435, yPos 396, dir 0, len 60.00
  <line   x1="4357" y1="835" x2="4957" y2="835" style="stroke:red;stroke-width:20" />

# curve: rad 0.0, dAng -30.0, color red
#   col red
 <!-- arc (495, 340) a0 90, a1 60, rad 56.00 -->
 <path d="M5237 910 L5193 888 L5148 869 L5102 855 L5054 844 L5005 838 L4957 835 L4957 835 " stroke="red" stroke-width="20" fill="none" />"

# str: xPos    523, yPos 388, dir -30, len 180.00
  <line   x1="5237" y1="910" x2="6795" y2="1810" style="stroke:red;stroke-width:20" />

# curve: rad 0.0, dAng -60.0, color red
#   col red
 <!-- arc (657, 260) a0 60, a1 0, rad 44.00 -->
 <path d="M7015 2192 L7014 2153 L7009 2115 L7001 2078 L6989 2041 L6974 2006 L6957 1972 L6936 1939 L6913 1909 L6887 1880 L6858 1854 L6828 1831 L6795 1810 L6795 1810 " stroke="red" stroke-width="20" fill="none" />"

# str: xPos    701, yPos 260, dir -90, len 150.00
  <line   x1="7015" y1="2192" x2="7015" y2="3692" style="stroke:red;stroke-width:20" />

# curve: rad 0.0, dAng 90.0, color red
#   col red
 <!-- arc (759, 110) a0 -180, a1 -90, rad 58.00 -->
 <path d="M7015 3692 L7018 3742 L7024 3792 L7035 3842 L7050 3890 L7070 3937 L7093 3982 L7120 4024 L7151 4064 L7185 4102 L7223 4136 L7263 4167 L7305 4194 L7350 4217 L7397 4237 L7445 4252 L7495 4263 L7545 4269 L7595 4272 L7595 4272 " stroke="red" stroke-width="20" fill="none" />"

# str: xPos    759, yPos 52, dir 0, len 50.00
  <line   x1="7595" y1="4272" x2="8095" y2="4272" style="stroke:red;stroke-width:20" />
</svg>

